PathFileType	4	(X/Y/Z)	5_coords_data.trc
DataRate	CameraRate	NumFrames	NumMarkers	Units	OrigDataRate	OrigDataStartFrame	OrigNumFrames
30.0	30.0	9	21	m	30.0	58	77
Frame#	Time	THUMB_TIP	THUMB_IP	THUMB_MCP	THUMB_CMC	INDEX_TIP	INDEX_DIP	INDEX_PIP	INDEX_MCP	MIDDLE_TIP	MIDDLE_DIP	MIDDLE_PIP	MIDDLE_MCP	RING_TIP	RING_DIP	RING_PIP	RING_MCP	PINKY_TIP	PINKY_DIP	PINKY_PIP	PINKY_MCP	WRIST
X1	Y1	Z1	X2	Y2	Z2	X3	Y3	Z3	X4	Y4	Z4	X5	Y5	Z5	X6	Y6	Z6	X7	Y7	Z7	X8	Y8	Z8	X9	Y9	Z9	X10	Y10	Z10	X11	Y11	Z11	X12	Y12	Z12	X13	Y13	Z13	X14	Y14	Z14	X15	Y15	Z15	X16	Y16	Z16	X17	Y17	Z17	X18	Y18	Z18	X19	Y19	Z19	X20	Y20	Z20	X21	Y21	Z21
57	1.9	-0.01608559989929199	-0.12663999938964843	0.995031982421875	-0.02205459976196289	-0.10679399871826172	1.0101599731445312	-0.03787649917602539	-0.09380840301513672	1.0330400390625	-0.03832229995727539	-0.06208779907226562	1.0443900146484375	-0.007322329998016358	-0.08364649963378906	0.916843017578125	-0.021711999893188477	-0.08104630279541016	0.9333400268554688	-0.03617639923095703	-0.07840589904785156	0.9516939697265625	-0.046393699645996093	-0.07456230163574219	0.9873829956054687	-0.006976960182189941	-0.05534590148925781	0.8991500244140626	-0.017005300521850585	-0.05673239898681641	0.9215089721679688	-0.03128170013427734	-0.05670050048828125	0.9473809814453125	-0.045692401885986327	-0.054123199462890625	0.9826279907226563	-0.007447090148925781	-0.033870498657226564	0.9061079711914063	-0.01827280044555664	-0.03340520095825195	0.9274840087890625	-0.03165430068969727	-0.03346649932861328	0.951051025390625	-0.041883800506591795	-0.03614239883422852	0.9858389892578125	-0.012444600105285645	-0.009891400337219238	0.9294450073242188	-0.02088839912414551	-0.012093600273132324	0.9481320190429687	-0.028017900466918946	-0.014965200424194336	0.9650029907226563	-0.0341349983215332	-0.020346099853515626	0.9901389770507812	-0.05281169891357422	-0.031066499710083007	1.058489990234375
58	1.9333333333333333	-0.016171600341796873	-0.12745800018310546	0.9972999877929688	-0.021271400451660157	-0.10675399780273437	1.0113200073242188	-0.036972099304199216	-0.09330699920654296	1.03368994140625	-0.03770550155639649	-0.06144839859008789	1.0448800048828124	-0.01004199981689453	-0.08259369659423828	0.9141489868164062	-0.022634199142456055	-0.08049739837646484	0.9324409790039062	-0.035535400390625	-0.07814140319824218	0.9520430297851562	-0.04435179901123047	-0.07447509765625	0.9880289916992188	-0.010008999824523926	-0.0540078010559082	0.8972009887695312	-0.018288799285888672	-0.055910598754882815	0.9204349975585937	-0.030645500183105467	-0.05628530120849609	0.9473140258789062	-0.04342789840698242	-0.05414780044555664	0.982905029296875	-0.010945300102233886	-0.03283190155029297	0.903875	-0.019666999816894532	-0.03278079986572266	0.926447021484375	-0.031007400512695314	-0.03321969985961914	0.9512479858398437	-0.03981930160522461	-0.03612170028686523	0.9861680297851563	-0.014245400428771973	-0.008210040092468262	0.9286820068359375	-0.021415599822998045	-0.011104900360107422	0.9478779907226562	-0.027608800888061523	-0.014429900169372558	0.9650469970703125	-0.03269219970703125	-0.02021500015258789	0.9902490234375	-0.05257509994506836	-0.0305408992767334	1.05881005859375
59	1.9666666666666666	-0.016017799377441407	-0.12813600158691407	0.9993699951171875	-0.020521799087524415	-0.10679100036621093	1.0127000122070313	-0.03615010070800781	-0.09293450164794922	1.034510009765625	-0.03694960021972656	-0.060951801300048826	1.0454100341796875	-0.011596699714660645	-0.0820696029663086	0.9129810180664063	-0.02266259956359863	-0.08033350372314453	0.9323579711914063	-0.03420370101928711	-0.0782260971069336	0.9527440185546875	-0.04267559814453125	-0.07451210021972657	0.9886339721679688	-0.01161270046234131	-0.05398350143432617	0.8964530029296875	-0.01864150047302246	-0.05599079895019531	0.9201079711914063	-0.029707000732421874	-0.05650719833374023	0.94747900390625	-0.041458900451660154	-0.05429930114746094	0.9832639770507813	-0.01270989990234375	-0.03328419876098633	0.9028939819335937	-0.02003689956665039	-0.0332958984375	0.926114013671875	-0.030036800384521483	-0.03371670150756836	0.951343017578125	-0.03805780029296875	-0.0363120002746582	0.9864099731445313	-0.01469480037689209	-0.008164050102233887	0.9283670043945312	-0.02124410057067871	-0.0111919002532959	0.9478049926757812	-0.026832700729370117	-0.01455679988861084	0.9650709838867187	-0.03141300010681152	-0.020291999816894533	0.9904329833984375	-0.05234170150756836	-0.029959199905395507	1.0591500244140626
60	2.0	-0.016226299285888673	-0.12874000549316406	1.001239990234375	-0.02019700050354004	-0.1070719985961914	1.01402001953125	-0.03572740173339844	-0.09268080139160156	1.035449951171875	-0.036471099853515626	-0.06062680053710937	1.04606005859375	-0.013163399696350098	-0.08241449737548828	0.9124000244140625	-0.023049400329589843	-0.08082129669189453	0.9326060180664062	-0.03371289825439453	-0.07864849853515625	0.9536220092773438	-0.04147909927368164	-0.07471189880371094	0.9893759765625	-0.012039999961853027	-0.05437279891967774	0.8964340209960937	-0.01857320022583008	-0.05643410110473633	0.9203510131835938	-0.028949600219726562	-0.05691780090332031	0.9479509887695312	-0.04025659942626953	-0.054636199951171874	0.9837570190429688	-0.012453499794006348	-0.03392330169677735	0.9028770141601562	-0.019349800109863282	-0.03390340042114258	0.9263709716796875	-0.028933399200439452	-0.03422560119628906	0.9516939697265625	-0.03695190048217773	-0.0365901985168457	0.9867379760742188	-0.014504899978637695	-0.008477970123291016	0.9282789916992188	-0.020802000045776366	-0.011509300231933594	0.9478829956054687	-0.02614940071105957	-0.014880999565124512	0.9652230224609375	-0.030548900604248048	-0.020503599166870116	0.9906370239257812	-0.05203929901123047	-0.029542699813842773	1.0595400390625
61	2.033333333333333	-0.016497100830078125	-0.12963699340820312	1.0028599853515625	-0.020095800399780272	-0.10769100189208984	1.01527001953125	-0.03575329971313477	-0.09279280090332032	1.0363199462890624	-0.036416500091552735	-0.06058679962158203	1.0466800537109375	-0.013493300437927246	-0.08335880279541015	0.912427001953125	-0.022768899917602538	-0.08168650054931641	0.9330159912109375	-0.03293069839477539	-0.07944280242919922	0.9543350219726563	-0.04067190170288086	-0.07520790100097656	0.9899340209960937	-0.010782299995422363	-0.055434200286865236	0.8970479736328125	-0.017316600799560548	-0.057386600494384765	0.9208809814453125	-0.027740299224853517	-0.05773249816894531	0.9484199829101563	-0.03915449905395508	-0.05522940063476563	0.9840819702148438	-0.011423700332641602	-0.034955699920654296	0.903197021484375	-0.018149099349975585	-0.0347874984741211	0.9266849975585938	-0.027696199417114258	-0.034954700469970706	0.9521580200195312	-0.03597529983520508	-0.03704759979248047	0.9870269775390625	-0.013836000442504883	-0.008896769523620606	0.9284749755859375	-0.019900800704956055	-0.011973199844360351	0.94810400390625	-0.025208799362182618	-0.015312899589538574	0.9654940185546875	-0.029650400161743164	-0.02089620018005371	0.990885986328125	-0.05182880020141602	-0.02956500053405762	1.059760009765625
62	2.066666666666667	-0.016825899124145508	-0.13056700134277344	1.0041199951171875	-0.020111299514770507	-0.10839900207519532	1.0162000122070312	-0.03550419998168945	-0.09312190246582032	1.037050048828125	-0.03608700180053711	-0.060890098571777344	1.0471199951171875	-0.013075599670410156	-0.08441130065917969	0.9127369995117187	-0.022107200622558595	-0.08270980072021485	0.9337109985351563	-0.0319724006652832	-0.08038400268554688	0.9550650024414062	-0.0401172981262207	-0.07579930114746093	0.9904650268554688	-0.009843440055847167	-0.056309600830078126	0.8975399780273438	-0.016405199050903322	-0.05822010040283203	0.9214760131835937	-0.02687350082397461	-0.05858029937744141	0.948989013671875	-0.038494998931884766	-0.055881099700927736	0.9845689697265625	-0.010958200454711913	-0.035930198669433595	0.90343798828125	-0.017549400329589845	-0.03571989822387695	0.9270289916992187	-0.026952800750732423	-0.035844001770019535	0.952447998046875	-0.035234298706054684	-0.03768600082397461	0.9873660278320312	-0.013479000091552734	-0.009381119728088378	0.9287069702148437	-0.01948390007019043	-0.012550700187683105	0.9484349975585937	-0.024656299591064454	-0.01595269966125488	0.9658569946289063	-0.029071100234985353	-0.021533899307250977	0.9911129760742188	-0.05170719909667969	-0.029727800369262695	1.0600899658203125
63	2.1	-0.01673780059814453	-0.1312729949951172	1.0048900146484374	-0.01990089988708496	-0.10900800323486329	1.0168200073242188	-0.03526530075073242	-0.0935447998046875	1.0376199951171876	-0.03576789855957031	-0.061354999542236326	1.047550048828125	-0.013668700218200684	-0.08538490295410156	0.9128920288085938	-0.022287500381469726	-0.08368099975585938	0.9340579833984375	-0.03185420036315918	-0.08126429748535156	0.9556259765625	-0.03993399810791016	-0.07650250244140624	0.9909829711914062	-0.010034799575805664	-0.057213901519775394	0.89781298828125	-0.016424900054931642	-0.05907759857177734	0.9217579956054688	-0.026788000106811524	-0.05937120056152344	0.9494119873046875	-0.03834859848022461	-0.05654990005493164	0.9850570068359376	-0.011099900245666504	-0.036779300689697265	0.9035640258789063	-0.0174591007232666	-0.03650299835205078	0.9272130126953125	-0.026754800796508788	-0.0365614013671875	0.9526810302734375	-0.035018901824951175	-0.03833380126953125	0.9877230224609375	-0.01361460018157959	-0.010079099655151367	0.9287919921875	-0.01949340057373047	-0.01319789981842041	0.9485650024414063	-0.02466349983215332	-0.01658489990234375	0.9660499877929688	-0.02884510040283203	-0.022083099365234376	0.991385009765625	-0.05143270111083984	-0.03009539985656738	1.0604599609375
64	2.1333333333333333	-0.016250499725341795	-0.13167100524902345	1.0053699951171875	-0.01956800079345703	-0.10943900299072265	1.0172000122070313	-0.03516699981689453	-0.09405159759521485	1.0378900146484376	-0.035779300689697265	-0.0617577018737793	1.0478499755859374	-0.014426799774169921	-0.08634140014648438	0.912926025390625	-0.022745599746704103	-0.08449150085449218	0.9342030029296875	-0.03211669921875	-0.08203109741210937	0.9559019775390625	-0.04004800033569336	-0.07704309844970703	0.9913090209960937	-0.010288000106811523	-0.0581702995300293	0.897958984375	-0.016638900756835936	-0.059902099609375	0.9220239868164063	-0.02693479919433594	-0.06006769943237305	0.9496890258789062	-0.03834140014648438	-0.0570979995727539	0.9851950073242187	-0.011071700096130371	-0.037629798889160154	0.9037139892578125	-0.017505699157714844	-0.037241401672363283	0.9274039916992187	-0.026738800048828126	-0.037215499877929686	0.9527919921875	-0.03501490020751953	-0.03887969970703125	0.9878569946289063	-0.013684700012207032	-0.010719400405883789	0.9288599853515624	-0.019539400100708006	-0.013815299987792969	0.9486900024414062	-0.02469700050354004	-0.017161300659179687	0.9661849975585938	-0.028826900482177734	-0.022614299774169924	0.9914929809570312	-0.05127360153198242	-0.03043079948425293	1.06077001953125
65	2.1666666666666665	-0.015776200294494627	-0.13189199829101564	1.0055700073242186	-0.01944179916381836	-0.10968199920654297	1.0174600219726562	-0.03511000061035156	-0.09448889923095703	1.0381099853515625	-0.03562799835205078	-0.062125801086425785	1.0479599609375	-0.014244799613952636	-0.0868468017578125	0.9132360229492188	-0.022620500564575194	-0.08503179931640625	0.9344650268554687	-0.03202870178222656	-0.08257599639892578	0.9561110229492188	-0.04015800094604492	-0.07751039886474609	0.9914509887695313	-0.009940999984741211	-0.05851409912109375	0.898260009765625	-0.01643589973449707	-0.06031930160522461	0.922322021484375	-0.026869600296020507	-0.060534400939941405	0.9499660034179688	-0.03852199935913086	-0.05750659942626953	0.9854229736328125	-0.010736300468444824	-0.03798979949951172	0.9040540161132813	-0.01731130027770996	-0.0376416015625	0.9276519775390625	-0.026709299087524414	-0.03763209915161133	0.953073974609375	-0.035042400360107424	-0.03928509902954101	0.9880130004882812	-0.01366409969329834	-0.011045800209045411	0.9290369873046875	-0.01958370018005371	-0.014145099639892578	0.9488480224609375	-0.024717599868774413	-0.017522899627685547	0.96631201171875	-0.028952299118041994	-0.022985200881958007	0.9916719970703125	-0.05113679885864258	-0.03087820053100586	1.0606800537109375
